name C:\Users\u0101727\Documents\MyRepositories\upper-imu-dc\Results\main_tracking\Case_10\FLX01_orientations_groundFrame.mot
datacolumns 13
datarows 32
range 2.01000000 2.32000000
endheader 
time	radius_imu_[0][0]	radius_imu_[0][1]	radius_imu_[0][2]	radius_imu_[1][0]	radius_imu_[1][1]	radius_imu_[1][2]	radius_imu_[2][0]	radius_imu_[2][1]	radius_imu_[2][2]	radius_imu_x	radius_imu_y	radius_imu_z	
          2.01000000	          0.52051985	         -0.83562796	         -0.17545655	         -0.46887890	         -0.45146981	          0.75916243	         -0.71359068	         -0.31289124	         -0.62680732	         -2.26098682	         -0.17636949	          1.01370234	
          2.02000000	          0.52785136	         -0.82965314	         -0.18179275	         -0.46595157	         -0.46182689	          0.75472185	         -0.71011413	         -0.31367434	         -0.63035413	         -2.26664338	         -0.18280928	          1.00416126	
          2.03000000	          0.53545194	         -0.82356823	         -0.18715392	         -0.46441010	         -0.47220245	          0.74923168	         -0.70541795	         -0.31426139	         -0.63531512	         -2.27410225	         -0.18826407	          0.99430793	
          2.04000000	          0.54337102	         -0.81737754	         -0.19142073	         -0.46434384	         -0.48259696	          0.74262034	         -0.69938025	         -0.31463333	         -0.64177343	         -2.28347739	         -0.19260944	          0.98410545	
          2.05000000	          0.55157814	         -0.81109721	         -0.19463525	         -0.46558043	         -0.49298385	          0.73498421	         -0.69209567	         -0.31478286	         -0.64955010	         -2.29456661	         -0.19588557	          0.97359266	
          2.06000000	          0.55997251	         -0.80475257	         -0.19698752	         -0.46774294	         -0.50331772	          0.72655889	         -0.68384745	         -0.31471349	         -0.65826142	         -2.30691576	         -0.19828428	          0.96287322	
          2.07000000	          0.56841353	         -0.79837282	         -0.19876344	         -0.47035805	         -0.51354706	          0.71765780	         -0.67503286	         -0.31443642	         -0.66742818	         -2.31994575	         -0.20009602	          0.95208520	
          2.08000000	          0.57675793	         -0.79198506	         -0.20027471	         -0.47297143	         -0.52362674	          0.70859937	         -0.66606930	         -0.31396609	         -0.67659218	         -2.33309192	         -0.20163830	          0.94136542	
          2.09000000	          0.58488702	         -0.78561021	         -0.20180132	         -0.47522408	         -0.53352546	          0.69965181	         -0.65731975	         -0.31331641	         -0.68539301	         -2.34590002	         -0.20319673	          0.93082435	
          2.10000000	          0.59271340	         -0.77926233	         -0.20357075	         -0.47686520	         -0.54322576	          0.69101763	         -0.64906888	         -0.31249960	         -0.69358027	         -2.35804531	         -0.20500367	          0.92054040	
          2.11000000	          0.60016994	         -0.77295073	         -0.20577468	         -0.47771391	         -0.55271822	          0.68285576	         -0.64154927	         -0.31152807	         -0.70097418	         -2.36928669	         -0.20725526	          0.91057104	
          2.12000000	          0.60719541	         -0.76668275	         -0.20859360	         -0.47761685	         -0.56199527	          0.67530990	         -0.63497707	         -0.31041726	         -0.70742155	         -2.37941366	         -0.21013670	          0.90096639	
          2.13000000	          0.61373390	         -0.76046420	         -0.21219073	         -0.47644848	         -0.57105004	          0.66850482	         -0.62954550	         -0.30918612	         -0.71279478	         -2.38824749	         -0.21381619	          0.89177035	
          2.14000000	          0.61975411	         -0.75429632	         -0.21666079	         -0.47416420	         -0.57988195	          0.66249923	         -0.62535842	         -0.30785383	         -0.71704454	         -2.39571257	         -0.21839271	          0.88300352	
          2.15000000	          0.62528141	         -0.74817053	         -0.22195499	         -0.47087535	         -0.58850583	          0.65721936	         -0.62233396	         -0.30643392	         -0.72027682	         -2.40193942	         -0.22381901	          0.87463517	
          2.16000000	          0.63042790	         -0.74206325	         -0.22782186	         -0.46690124	         -0.59695927	          0.65241311	         -0.62013216	         -0.30492911	         -0.72281003	         -2.40733931	         -0.22984013	          0.86655726	
          2.17000000	          0.63540403	         -0.73593388	         -0.23380127	         -0.46276099	         -0.60530343	          0.64765734	         -0.61815369	         -0.30332997	         -0.72517373	         -2.41259923	         -0.23598549	          0.85857513	
          2.18000000	          0.64049780	         -0.72972803	         -0.23928974	         -0.45908894	         -0.61361486	          0.64242832	         -0.61562969	         -0.30161865	         -0.72802903	         -2.41857487	         -0.24163427	          0.85042717	
          2.19000000	          0.64601865	         -0.72338623	         -0.24366425	         -0.45649061	         -0.62196978	          0.63621530	         -0.61178119	         -0.29977651	         -0.73202310	         -2.42610312	         -0.24614220	          0.84183539	
          2.20000000	          0.65222323	         -0.71685534	         -0.24642093	         -0.45539055	         -0.63042702	          0.62863441	         -0.60599035	         -0.29779220	         -0.73762829	         -2.43580110	         -0.24898556	          0.83257161	
          2.21000000	          0.65925295	         -0.71009801	         -0.24727792	         -0.45593259	         -0.63901636	          0.61950268	         -0.59792225	         -0.29566690	         -0.74503024	         -2.44792936	         -0.24986992	          0.82251189	
          2.22000000	          0.66710717	         -0.70309696	         -0.24621675	         -0.45796258	         -0.64773601	          0.60885823	         -0.58756982	         -0.29341564	         -0.75410143	         -2.46235840	         -0.24877489	          0.81165813	
          2.23000000	          0.67565565	         -0.69585410	         -0.24346768	         -0.46108268	         -0.65655751	          0.59693802	         -0.57523231	         -0.29106581	         -0.76445306	         -2.47862604	         -0.24593952	          0.80012427	
          2.24000000	          0.68467738	         -0.68838632	         -0.23946013	         -0.46474374	         -0.66543433	          0.58413218	         -0.56145360	         -0.28865449	         -0.77553107	         -2.49604490	         -0.24180977	          0.78809938	
          2.25000000	          0.69390809	         -0.68072036	         -0.23475809	         -0.46834238	         -0.67431056	          0.57092967	         -0.54694331	         -0.28622555	         -0.78671974	         -2.51381982	         -0.23696970	          0.77580479	
          2.26000000	          0.70308175	         -0.67288836	         -0.22999413	         -0.47130141	         -0.68312774	          0.55786332	         -0.53249510	         -0.28382696	         -0.79742788	         -2.53114970	         -0.23207165	          0.76345834	
          2.27000000	          0.71195887	         -0.66492465	         -0.22580915	         -0.47312446	         -0.69182974	          0.54545839	         -0.51891022	         -0.28150810	         -0.80714644	         -2.54730310	         -0.22777356	          0.75125153	
          2.28000000	          0.72034005	         -0.65686354	         -0.22280149	         -0.47342500	         -0.70036585	          0.53418765	         -0.50693094	         -0.27931696	         -0.81547719	         -2.56166754	         -0.22468726	          0.73933989	
          2.29000000	          0.72806805	         -0.64873794	         -0.22148591	         -0.47193519	         -0.70869271	          0.52443477	         -0.49718618	         -0.27729720	         -0.82213877	         -2.57377720	         -0.22333797	          0.72784286	
          2.30000000	          0.73502320	         -0.64057841	         -0.22226154	         -0.46850238	         -0.71677551	          0.51646723	         -0.49014938	         -0.27548534	         -0.82695914	         -2.58332579	         -0.22413342	          0.71684866	
          2.31000000	          0.74111842	         -0.63241221	         -0.22538475	         -0.46308215	         -0.72458903	          0.51041714	         -0.48610535	         -0.27390789	         -0.82986508	         -2.59017288	         -0.22733793	          0.70641916	
          2.32000000	          0.74629955	         -0.62426172	         -0.23094216	         -0.45573576	         -0.73211902	          0.50626738	         -0.48512049	         -0.27257852	         -0.83087849	         -2.59435145	         -0.23304591	          0.69659014	
